<svg xmlns="http://www.w3.org/2000/svg" xmlns:xlink="http://www.w3.org/1999/xlink" width="1920" zoomAndPan="magnify" viewBox="0 0 1440 809.999993" height="1080" preserveAspectRatio="xMidYMid meet" version="1.0"><defs><g/><clipPath id="3b009a682f"><path d="M 436.46875 551 L 461 551 L 461 582.277344 L 436.46875 582.277344 Z M 436.46875 551 " clip-rule="nonzero"/></clipPath><clipPath id="8223bcacff"><path d="M 460 575 L 981 575 L 981 582.277344 L 460 582.277344 Z M 460 575 " clip-rule="nonzero"/></clipPath><clipPath id="b3e5f8ea95"><path d="M 980 551 L 1003.46875 551 L 1003.46875 582.277344 L 980 582.277344 Z M 980 551 " clip-rule="nonzero"/></clipPath><clipPath id="1124557af3"><path d="M 997 255 L 1003.46875 255 L 1003.46875 552 L 997 552 Z M 997 255 " clip-rule="nonzero"/></clipPath><clipPath id="128ace86f1"><path d="M 980 223.027344 L 1003.46875 223.027344 L 1003.46875 256 L 980 256 Z M 980 223.027344 " clip-rule="nonzero"/></clipPath><clipPath id="fa1b527d09"><path d="M 460 223.027344 L 981 223.027344 L 981 231 L 460 231 Z M 460 223.027344 " clip-rule="nonzero"/></clipPath><clipPath id="a704862b3a"><path d="M 436.46875 255 L 443 255 L 443 552 L 436.46875 552 Z M 436.46875 255 " clip-rule="nonzero"/></clipPath><clipPath id="3ec3489431"><path d="M 436.46875 223.027344 L 461 223.027344 L 461 256 L 436.46875 256 Z M 436.46875 223.027344 " clip-rule="nonzero"/></clipPath><clipPath id="1018b7b431"><path d="M 943 0 L 1228 0 L 1228 221 L 943 221 Z M 943 0 " clip-rule="nonzero"/></clipPath><clipPath id="b3cf54ca53"><path d="M 935.867188 33.910156 L 1173.472656 -61.195312 L 1268.578125 176.410156 L 1030.972656 271.515625 Z M 935.867188 33.910156 " clip-rule="nonzero"/></clipPath><clipPath id="9940ea45f1"><path d="M 935.867188 33.910156 L 1173.472656 -61.195312 L 1268.578125 176.410156 L 1030.972656 271.515625 Z M 935.867188 33.910156 " clip-rule="nonzero"/></clipPath><clipPath id="bdf945fb97"><path d="M 1004 31 L 1313 31 L 1313 262 L 1004 262 Z M 1004 31 " clip-rule="nonzero"/></clipPath><clipPath id="666f20e67b"><path d="M 1001.773438 66.144531 L 1239.382812 -28.960938 L 1330.0625 197.59375 L 1092.457031 292.699219 Z M 1001.773438 66.144531 " clip-rule="nonzero"/></clipPath><clipPath id="58d89e487c"><path d="M 1238.605469 -28.648438 L 1000.996094 66.457031 L 1091.679688 293.011719 L 1329.285156 197.90625 Z M 1238.605469 -28.648438 " clip-rule="nonzero"/></clipPath><clipPath id="81072411eb"><path d="M 872.679688 338.96875 L 965 338.96875 L 965 431.292969 L 872.679688 431.292969 Z M 872.679688 338.96875 " clip-rule="nonzero"/></clipPath><clipPath id="f5ff12c603"><path d="M 890.429688 358.601562 L 982.449219 358.601562 L 982.449219 446.628906 L 890.429688 446.628906 Z M 890.429688 358.601562 " clip-rule="nonzero"/></clipPath><clipPath id="5fa71c1836"><path d="M 80 344 L 313 344 L 313 615 L 80 615 Z M 80 344 " clip-rule="nonzero"/></clipPath><clipPath id="1c1f781130"><path d="M 112.523438 338.96875 L 349.46875 406.960938 L 281.476562 643.90625 L 44.53125 575.914062 Z M 112.523438 338.96875 " clip-rule="nonzero"/></clipPath><clipPath id="d88b6887c7"><path d="M 112.523438 338.96875 L 349.46875 406.960938 L 281.476562 643.90625 L 44.53125 575.914062 Z M 112.523438 338.96875 " clip-rule="nonzero"/></clipPath><clipPath id="3024c4a691"><path d="M 141 404 L 362 404 L 362 688 L 141 688 Z M 141 404 " clip-rule="nonzero"/></clipPath><clipPath id="b293736dd9"><path d="M 143.625 402.421875 L 380.566406 470.414062 L 315.738281 696.339844 L 78.796875 628.347656 Z M 143.625 402.421875 " clip-rule="nonzero"/></clipPath><clipPath id="c74f2e23c5"><path d="M 379.792969 470.191406 L 142.851562 402.203125 L 78.019531 628.125 L 314.964844 696.117188 Z M 379.792969 470.191406 " clip-rule="nonzero"/></clipPath><clipPath id="def78f070f"><path d="M 1024.921875 624.730469 L 1343.234375 624.730469 L 1343.234375 810 L 1024.921875 810 Z M 1024.921875 624.730469 " clip-rule="nonzero"/></clipPath><clipPath id="8c9f632ffa"><path d="M 1086.125 692.414062 L 1403 692.414062 L 1403 810 L 1086.125 810 Z M 1086.125 692.414062 " clip-rule="nonzero"/></clipPath></defs><rect x="-144" width="1728" fill="#ffffff" y="-80.999999" height="971.999992" fill-opacity="1"/><rect x="-144" width="1728" fill="#c1ff72" y="-80.999999" height="971.999992" fill-opacity="1"/><g clip-path="url(#3b009a682f)"><path fill="#fdfdfd" d="M 442.003906 575.132812 L 442.003906 551.492188 L 434.964844 551.492188 L 434.964844 582.171875 L 460.050781 582.171875 L 460.050781 575.132812 Z M 442.003906 575.132812 " fill-opacity="1" fill-rule="nonzero"/></g><g clip-path="url(#8223bcacff)"><path fill="#fdfdfd" d="M 460.050781 582.171875 L 460.050781 575.132812 L 980.632812 575.132812 L 980.632812 582.171875 Z M 460.050781 582.171875 " fill-opacity="1" fill-rule="nonzero"/></g><g clip-path="url(#b3e5f8ea95)"><path fill="#fdfdfd" d="M 997.992188 575.132812 L 980.632812 575.132812 L 980.632812 582.171875 L 1005.023438 582.171875 L 1005.023438 551.492188 L 997.992188 551.492188 Z M 997.992188 575.132812 " fill-opacity="1" fill-rule="nonzero"/></g><g clip-path="url(#1124557af3)"><path fill="#fdfdfd" d="M 997.992188 551.492188 L 997.992188 255.347656 L 1005.023438 255.347656 L 1005.023438 551.492188 Z M 997.992188 551.492188 " fill-opacity="1" fill-rule="nonzero"/></g><g clip-path="url(#128ace86f1)"><path fill="#fdfdfd" d="M 997.992188 230.289062 L 997.992188 255.347656 L 1005.023438 255.347656 L 1005.023438 223.246094 L 980.632812 223.246094 L 980.632812 230.289062 Z M 997.992188 230.289062 " fill-opacity="1" fill-rule="nonzero"/></g><g clip-path="url(#fa1b527d09)"><path fill="#fdfdfd" d="M 460.050781 230.289062 L 460.050781 223.246094 L 980.632812 223.246094 L 980.632812 230.289062 Z M 460.050781 230.289062 " fill-opacity="1" fill-rule="nonzero"/></g><g clip-path="url(#a704862b3a)"><path fill="#fdfdfd" d="M 434.964844 551.492188 L 434.964844 255.347656 L 442.003906 255.347656 L 442.003906 551.492188 Z M 434.964844 551.492188 " fill-opacity="1" fill-rule="nonzero"/></g><g clip-path="url(#3ec3489431)"><path fill="#fdfdfd" d="M 442.003906 230.289062 L 460.050781 230.289062 L 460.050781 223.246094 L 434.964844 223.246094 L 434.964844 255.347656 L 442.003906 255.347656 Z M 442.003906 230.289062 " fill-opacity="1" fill-rule="nonzero"/></g><g clip-path="url(#1018b7b431)"><g clip-path="url(#b3cf54ca53)"><g clip-path="url(#9940ea45f1)"><path fill="#00bf63" d="M 1211.820312 55.40625 L 1062.289062 -8.636719 C 1056.246094 -11.175781 1049.242188 -11.472656 1042.710938 -8.855469 L 959.609375 24.40625 C 946.492188 29.65625 940.121094 44.535156 945.371094 57.652344 L 978.632812 140.753906 C 981.269531 147.34375 986.316406 152.210938 992.363281 154.75 L 1141.972656 218.828125 C 1147.957031 221.390625 1154.964844 221.6875 1161.492188 219.074219 C 1168.023438 216.460938 1172.949219 211.390625 1175.511719 205.40625 L 1225.351562 89.039062 C 1227.890625 82.996094 1228.183594 75.992188 1225.570312 69.460938 C 1222.933594 62.871094 1217.886719 58.003906 1211.820312 55.40625 Z M 1001.175781 76.636719 C 991.324219 80.582031 980.1875 75.808594 976.242188 65.957031 C 972.296875 56.101562 977.066406 44.964844 986.921875 41.019531 C 996.773438 37.078125 1007.914062 41.847656 1011.855469 51.699219 C 1015.800781 61.554688 1011.03125 72.691406 1001.175781 76.636719 Z M 1001.175781 76.636719 " fill-opacity="1" fill-rule="nonzero"/></g></g></g><g clip-path="url(#bdf945fb97)"><g clip-path="url(#666f20e67b)"><g clip-path="url(#58d89e487c)"><path fill="#ffffff" d="M 1008.980469 63.328125 C 1009.347656 63.1875 1009.734375 63.070312 1010.117188 62.992188 C 1010.125 62.988281 1010.128906 62.984375 1010.136719 62.984375 L 1048.753906 54.6875 C 1051.210938 54.164062 1053.769531 54.96875 1055.488281 56.800781 C 1055.492188 56.804688 1055.492188 56.8125 1055.496094 56.820312 L 1089.484375 93.113281 L 1254.808594 31.675781 C 1256.710938 30.96875 1258.820312 31.113281 1260.609375 32.039062 C 1262.402344 32.96875 1263.746094 34.617188 1264.265625 36.585938 L 1285.148438 114.949219 C 1286.03125 118.234375 1284.4375 121.757812 1281.386719 123.261719 L 1168.402344 179.253906 L 1152.554688 206.707031 C 1152.539062 206.738281 1152.519531 206.769531 1152.5 206.800781 C 1152.480469 206.828125 1152.453125 206.84375 1152.433594 206.871094 C 1152.414062 206.902344 1152.398438 206.9375 1152.375 206.964844 C 1149.417969 211.804688 1150.089844 216.515625 1151.640625 218.664062 C 1152.523438 219.886719 1153.441406 220.675781 1154.984375 220.953125 C 1156.523438 221.230469 1158.875 220.933594 1162.4375 219.265625 C 1162.449219 219.261719 1162.460938 219.253906 1162.476562 219.25 C 1162.59375 219.199219 1162.722656 219.148438 1162.84375 219.101562 C 1162.863281 219.097656 1162.882812 219.085938 1162.902344 219.078125 L 1302.246094 163.777344 L 1302.265625 163.769531 C 1305.914062 162.28125 1310.222656 164.117188 1311.671875 167.777344 C 1313.121094 171.441406 1311.253906 175.734375 1307.574219 177.144531 L 1307.554688 177.152344 L 1297.371094 181.207031 C 1302.117188 182.101562 1306.339844 185.300781 1308.257812 190.089844 C 1311.238281 197.535156 1307.578125 206.074219 1300.132812 209.054688 C 1292.6875 212.035156 1284.148438 208.378906 1281.167969 200.933594 C 1279.242188 196.117188 1280.078125 190.84375 1282.929688 186.914062 L 1168.1875 232.464844 C 1173.25 233.140625 1177.835938 236.433594 1179.855469 241.484375 C 1182.835938 248.929688 1179.179688 257.46875 1171.734375 260.449219 C 1164.289062 263.429688 1155.746094 259.773438 1152.769531 252.328125 C 1150.179688 245.859375 1152.589844 238.570312 1158.148438 234.8125 C 1151.578125 235.078125 1145.476562 232.648438 1140.171875 227.328125 C 1140.097656 227.269531 1140.03125 227.199219 1139.972656 227.128906 C 1134.511719 219.574219 1134.582031 208.960938 1139.882812 199.949219 C 1139.894531 199.921875 1139.910156 199.894531 1139.921875 199.863281 C 1139.933594 199.84375 1139.925781 199.808594 1139.9375 199.789062 C 1139.972656 199.679688 1140.015625 199.574219 1140.070312 199.476562 L 1151.3125 180.0625 L 1047.800781 69.605469 L 1013.160156 77.0625 C 1013.15625 77.0625 1013.148438 77.070312 1013.140625 77.070312 C 1009.515625 77.886719 1005.753906 75.707031 1004.667969 72.144531 C 1003.578125 68.574219 1005.503906 64.664062 1008.984375 63.328125 Z M 1098.546875 101.457031 L 1117.640625 121.847656 L 1129.925781 116.929688 L 1120.472656 93.316406 Z M 1125.214844 91.558594 L 1134.617188 115.054688 L 1157.300781 105.976562 L 1148.125 83.050781 Z M 1152.855469 81.273438 L 1161.992188 104.097656 L 1184.671875 95.019531 L 1175.765625 72.761719 Z M 1180.503906 71.007812 L 1189.363281 93.140625 L 1212.046875 84.0625 L 1203.414062 62.496094 Z M 1208.152344 60.742188 L 1216.738281 82.183594 L 1239.417969 73.105469 L 1231.0625 52.230469 Z M 1235.796875 50.453125 L 1244.109375 71.226562 L 1260.742188 64.570312 L 1255.078125 43.300781 Z M 1262.042969 69.46875 L 1245.980469 75.898438 L 1254.472656 97.117188 L 1267.976562 91.714844 Z M 1241.289062 77.777344 L 1218.605469 86.855469 L 1227.101562 108.074219 L 1249.78125 98.996094 Z M 1213.914062 88.730469 L 1191.234375 97.8125 L 1199.726562 119.03125 L 1222.410156 109.953125 Z M 1186.542969 99.6875 L 1163.859375 108.765625 L 1172.355469 129.988281 L 1195.035156 120.910156 Z M 1159.167969 110.644531 L 1136.488281 119.722656 L 1144.980469 140.945312 L 1167.664062 131.867188 Z M 1131.796875 121.601562 L 1121.320312 125.796875 L 1138.097656 143.699219 L 1140.289062 142.820312 Z M 1269.273438 96.613281 L 1256.339844 101.789062 L 1262.433594 117.019531 L 1273.285156 111.640625 Z M 1251.648438 103.667969 L 1228.964844 112.746094 L 1235.933594 130.148438 L 1257.890625 119.261719 Z M 1224.273438 114.625 L 1201.59375 123.703125 L 1209.429688 143.277344 L 1231.394531 132.414062 Z M 1196.902344 125.582031 L 1174.21875 134.660156 L 1182.933594 156.429688 L 1204.890625 145.542969 Z M 1169.53125 136.539062 L 1146.847656 145.617188 L 1152.015625 158.53125 L 1160.734375 167.835938 C 1161.1875 167.339844 1161.730469 166.929688 1162.328125 166.632812 L 1178.390625 158.671875 Z M 1142.15625 147.492188 L 1141.8125 147.632812 L 1142.539062 148.449219 Z M 1291.515625 187.558594 C 1287.089844 189.328125 1284.96875 194.277344 1286.742188 198.703125 C 1288.511719 203.128906 1293.453125 205.230469 1297.878906 203.457031 C 1302.304688 201.6875 1304.433594 196.757812 1302.660156 192.332031 C 1300.890625 187.90625 1295.941406 185.785156 1291.515625 187.558594 Z M 1163.121094 238.949219 C 1158.695312 240.722656 1156.574219 245.671875 1158.347656 250.097656 C 1160.117188 254.523438 1165.058594 256.621094 1169.484375 254.851562 C 1173.910156 253.078125 1176.039062 248.148438 1174.265625 243.722656 C 1172.496094 239.296875 1167.546875 237.179688 1163.121094 238.949219 Z M 1293.027344 191.335938 C 1295.429688 190.371094 1298.121094 191.523438 1299.082031 193.929688 C 1300.042969 196.335938 1298.882812 199.003906 1296.480469 199.964844 C 1294.074219 200.925781 1291.394531 199.796875 1290.433594 197.390625 C 1289.46875 194.988281 1290.621094 192.296875 1293.027344 191.335938 Z M 1164.632812 242.726562 C 1167.035156 241.765625 1169.726562 242.917969 1170.6875 245.320312 C 1171.652344 247.726562 1170.488281 250.394531 1168.085938 251.355469 C 1165.679688 252.320312 1163 251.1875 1162.039062 248.785156 C 1161.074219 246.378906 1162.226562 243.6875 1164.632812 242.726562 Z M 1164.632812 242.726562 " fill-opacity="1" fill-rule="nonzero"/></g></g></g><g clip-path="url(#81072411eb)"><path fill="#00bf63" d="M 962.210938 383.160156 L 920.722656 341.667969 C 919.039062 340.007812 916.730469 338.96875 914.195312 338.96875 L 881.90625 338.96875 C 876.808594 338.96875 872.679688 343.097656 872.679688 348.195312 L 872.679688 380.484375 C 872.679688 383.042969 873.71875 385.351562 875.402344 387.011719 L 916.914062 428.527344 C 918.574219 430.1875 920.882812 431.226562 923.417969 431.226562 C 925.957031 431.226562 928.285156 430.1875 929.945312 428.527344 L 962.234375 396.238281 C 963.894531 394.554688 964.933594 392.246094 964.933594 389.710938 C 964.933594 387.148438 963.894531 384.84375 962.210938 383.160156 Z M 888.824219 362.035156 C 884.996094 362.035156 881.90625 358.941406 881.90625 355.113281 C 881.90625 351.285156 884.996094 348.195312 888.824219 348.195312 C 892.652344 348.195312 895.742188 351.285156 895.742188 355.113281 C 895.742188 358.941406 892.652344 362.035156 888.824219 362.035156 Z M 888.824219 362.035156 " fill-opacity="1" fill-rule="nonzero"/></g><g clip-path="url(#f5ff12c603)"><path fill="#fdfdfd" d="M 893.21875 358.625 C 893.363281 358.625 893.507812 358.636719 893.648438 358.664062 C 893.648438 358.664062 893.652344 358.664062 893.65625 358.664062 L 907.699219 361.0625 C 908.59375 361.214844 909.339844 361.828125 909.671875 362.671875 C 909.671875 362.671875 909.671875 362.675781 909.671875 362.679688 L 916.1875 379.390625 L 979.789062 380.976562 C 980.523438 380.992188 981.207031 381.324219 981.683594 381.875 C 982.160156 382.425781 982.386719 383.160156 982.300781 383.886719 L 978.789062 412.929688 C 978.644531 414.148438 977.636719 415.113281 976.414062 415.210938 L 931.070312 418.816406 L 922.082031 425.886719 C 922.074219 425.894531 922.0625 425.902344 922.050781 425.910156 C 922.042969 425.914062 922.03125 425.917969 922.019531 425.925781 C 922.007812 425.933594 922 425.941406 921.988281 425.949219 C 920.347656 427.171875 919.941406 428.839844 920.175781 429.765625 C 920.304688 430.292969 920.507812 430.683594 920.988281 430.980469 C 921.464844 431.28125 922.292969 431.496094 923.710938 431.414062 C 923.714844 431.414062 923.71875 431.414062 923.726562 431.414062 C 923.769531 431.414062 923.820312 431.414062 923.867188 431.414062 C 923.875 431.414062 923.882812 431.414062 923.890625 431.414062 L 977.96875 431.574219 L 977.976562 431.574219 C 979.398438 431.566406 980.59375 432.757812 980.589844 434.175781 C 980.582031 435.597656 979.382812 436.785156 977.960938 436.765625 L 977.953125 436.765625 L 974 436.757812 C 975.46875 437.695312 976.453125 439.332031 976.453125 441.191406 C 976.453125 444.085938 974.085938 446.453125 971.191406 446.453125 C 968.300781 446.453125 965.929688 444.085938 965.929688 441.191406 C 965.929688 439.320312 966.917969 437.667969 968.398438 436.734375 L 923.867188 436.605469 C 925.472656 437.511719 926.566406 439.230469 926.566406 441.191406 C 926.566406 444.085938 924.195312 446.453125 921.300781 446.453125 C 918.410156 446.453125 916.039062 444.085938 916.039062 441.191406 C 916.039062 438.679688 917.824219 436.5625 920.191406 436.046875 C 917.953125 435.257812 916.234375 433.625 915.171875 431.132812 C 915.15625 431.101562 915.144531 431.070312 915.132812 431.035156 C 914.316406 427.777344 915.761719 424.230469 918.746094 421.925781 C 918.753906 421.914062 918.761719 421.90625 918.769531 421.898438 C 918.777344 421.894531 918.777344 421.882812 918.785156 421.875 C 918.8125 421.84375 918.839844 421.816406 918.871094 421.789062 L 925.238281 416.796875 L 905.378906 365.929688 L 892.78125 363.78125 C 892.777344 363.78125 892.773438 363.785156 892.773438 363.78125 C 891.449219 363.570312 890.480469 362.335938 890.59375 360.996094 C 890.707031 359.65625 891.878906 358.605469 893.222656 358.621094 Z M 918.105469 383.398438 L 921.765625 392.785156 L 926.539062 392.785156 L 926.539062 383.609375 Z M 928.363281 383.660156 L 928.363281 392.785156 L 937.175781 392.785156 L 937.175781 383.878906 Z M 939 383.917969 L 939 392.785156 L 947.8125 392.785156 L 947.8125 384.140625 Z M 949.632812 384.1875 L 949.632812 392.785156 L 958.445312 392.785156 L 958.445312 384.40625 Z M 960.269531 384.457031 L 960.269531 392.785156 L 969.082031 392.785156 L 969.082031 384.675781 Z M 970.90625 384.714844 L 970.90625 392.785156 L 977.367188 392.785156 L 978.320312 384.90625 Z M 977.144531 394.601562 L 970.90625 394.601562 L 970.90625 402.847656 L 976.152344 402.847656 Z M 969.082031 394.601562 L 960.269531 394.601562 L 960.269531 402.847656 L 969.082031 402.847656 Z M 958.445312 394.601562 L 949.632812 394.601562 L 949.632812 402.847656 L 958.445312 402.847656 Z M 947.8125 394.601562 L 939 394.601562 L 939 402.847656 L 947.8125 402.847656 Z M 937.175781 394.601562 L 928.363281 394.601562 L 928.363281 402.847656 L 937.175781 402.847656 Z M 926.539062 394.601562 L 922.46875 394.601562 L 925.6875 402.847656 L 926.539062 402.847656 Z M 975.929688 404.660156 L 970.902344 404.660156 L 970.902344 410.578125 L 975.257812 410.230469 Z M 969.082031 404.660156 L 960.269531 404.660156 L 960.269531 411.421875 L 969.082031 410.722656 Z M 958.445312 404.660156 L 949.632812 404.660156 L 949.632812 412.265625 L 958.445312 411.574219 Z M 947.808594 404.660156 L 938.996094 404.660156 L 938.996094 413.121094 L 947.808594 412.417969 Z M 937.175781 404.660156 L 928.359375 404.660156 L 928.359375 409.679688 L 930.035156 413.964844 C 930.25 413.859375 930.488281 413.792969 930.726562 413.773438 L 937.175781 413.261719 Z M 926.539062 404.660156 L 926.40625 404.660156 L 926.539062 405.03125 Z M 971.1875 438.097656 C 969.46875 438.097656 968.09375 439.472656 968.09375 441.191406 C 968.09375 442.910156 969.46875 444.277344 971.1875 444.277344 C 972.90625 444.277344 974.28125 442.910156 974.28125 441.191406 C 974.28125 439.472656 972.90625 438.097656 971.1875 438.097656 Z M 921.300781 438.097656 C 919.582031 438.097656 918.207031 439.472656 918.207031 441.191406 C 918.207031 442.910156 919.582031 444.277344 921.300781 444.277344 C 923.019531 444.277344 924.390625 442.910156 924.390625 441.191406 C 924.390625 439.472656 923.019531 438.097656 921.300781 438.097656 Z M 971.1875 439.566406 C 972.121094 439.566406 972.867188 440.3125 972.867188 441.246094 C 972.867188 442.183594 972.121094 442.921875 971.1875 442.921875 C 970.253906 442.921875 969.507812 442.183594 969.507812 441.246094 C 969.507812 440.3125 970.253906 439.566406 971.1875 439.566406 Z M 921.300781 439.566406 C 922.234375 439.566406 922.980469 440.3125 922.980469 441.246094 C 922.980469 442.183594 922.234375 442.921875 921.300781 442.921875 C 920.367188 442.921875 919.621094 442.183594 919.621094 441.246094 C 919.621094 440.3125 920.367188 439.566406 921.300781 439.566406 Z M 921.300781 439.566406 " fill-opacity="1" fill-rule="nonzero"/></g><g fill="#000000" fill-opacity="1"><g transform="translate(481.828532, 415.283049)"><g><path d="M 22.1875 0.953125 C 18.21875 0.953125 14.800781 0.300781 11.9375 -1 C 9.070312 -2.3125 6.859375 -4.175781 5.296875 -6.59375 C 3.742188 -9.007812 2.96875 -11.835938 2.96875 -15.078125 L 13.53125 -15.078125 C 13.53125 -12.828125 14.304688 -11.066406 15.859375 -9.796875 C 17.410156 -8.535156 19.5 -7.90625 22.125 -7.90625 C 24.375 -7.90625 26.148438 -8.34375 27.453125 -9.21875 C 28.765625 -10.101562 29.421875 -11.335938 29.421875 -12.921875 C 29.421875 -14.585938 28.628906 -15.9375 27.046875 -16.96875 C 25.472656 -18.007812 23.019531 -18.890625 19.6875 -19.609375 C 14.132812 -20.785156 10.023438 -22.566406 7.359375 -24.953125 C 4.703125 -27.347656 3.375 -30.460938 3.375 -34.296875 C 3.375 -38.617188 4.953125 -42.03125 8.109375 -44.53125 C 11.273438 -47.039062 15.582031 -48.296875 21.03125 -48.296875 C 24.78125 -48.296875 28.03125 -47.648438 30.78125 -46.359375 C 33.53125 -45.078125 35.660156 -43.273438 37.171875 -40.953125 C 38.679688 -38.628906 39.4375 -35.867188 39.4375 -32.671875 L 29.078125 -32.671875 C 29.078125 -34.785156 28.378906 -36.453125 26.984375 -37.671875 C 25.585938 -38.890625 23.648438 -39.5 21.171875 -39.5 C 18.921875 -39.5 17.140625 -39.054688 15.828125 -38.171875 C 14.515625 -37.296875 13.859375 -36.070312 13.859375 -34.5 C 13.859375 -33.050781 14.578125 -31.832031 16.015625 -30.84375 C 17.460938 -29.851562 19.992188 -28.929688 23.609375 -28.078125 C 29.515625 -26.671875 33.773438 -24.796875 36.390625 -22.453125 C 39.003906 -20.109375 40.3125 -17.066406 40.3125 -13.328125 C 40.3125 -8.859375 38.695312 -5.359375 35.46875 -2.828125 C 32.25 -0.304688 27.820312 0.953125 22.1875 0.953125 Z M 22.1875 0.953125 "/></g></g></g><g fill="#000000" fill-opacity="1"><g transform="translate(523.625252, 415.283049)"><g><path d="M 19.28125 0.953125 C 14.675781 0.953125 11.054688 -0.5 8.421875 -3.40625 C 5.785156 -6.320312 4.46875 -10.238281 4.46875 -15.15625 L 4.46875 -35.515625 L 14.75 -35.515625 L 14.75 -16.171875 C 14.75 -13.554688 15.367188 -11.523438 16.609375 -10.078125 C 17.847656 -8.628906 19.550781 -7.90625 21.71875 -7.90625 C 24.0625 -7.90625 25.929688 -8.71875 27.328125 -10.34375 C 28.722656 -11.96875 29.421875 -14.179688 29.421875 -16.984375 L 29.421875 -35.515625 L 39.703125 -35.515625 L 39.703125 0 L 32.0625 0 L 30.984375 -3.984375 C 29.578125 -2.316406 27.859375 -1.078125 25.828125 -0.265625 C 23.804688 0.546875 21.625 0.953125 19.28125 0.953125 Z M 19.28125 0.953125 "/></g></g></g><g fill="#000000" fill-opacity="1"><g transform="translate(566.909903, 415.283049)"><g><path d="M 26.65625 0.953125 C 24.445312 0.953125 22.394531 0.625 20.5 -0.03125 C 18.601562 -0.6875 16.910156 -1.597656 15.421875 -2.765625 L 15.421875 13.53125 L 5.140625 13.53125 L 5.140625 -35.515625 L 12.78125 -35.515625 L 13.9375 -31.453125 C 15.507812 -33.023438 17.378906 -34.25 19.546875 -35.125 C 21.710938 -36.007812 24.082031 -36.453125 26.65625 -36.453125 C 30.21875 -36.453125 33.347656 -35.648438 36.046875 -34.046875 C 38.753906 -32.453125 40.882812 -30.253906 42.4375 -27.453125 C 44 -24.660156 44.78125 -21.441406 44.78125 -17.796875 C 44.78125 -14.140625 44 -10.898438 42.4375 -8.078125 C 40.882812 -5.265625 38.753906 -3.054688 36.046875 -1.453125 C 33.347656 0.148438 30.21875 0.953125 26.65625 0.953125 Z M 15.015625 -17.796875 C 15.015625 -14.898438 15.925781 -12.523438 17.75 -10.671875 C 19.582031 -8.828125 21.941406 -7.90625 24.828125 -7.90625 C 27.753906 -7.90625 30.117188 -8.828125 31.921875 -10.671875 C 33.722656 -12.523438 34.625 -14.898438 34.625 -17.796875 C 34.625 -20.679688 33.722656 -23.046875 31.921875 -24.890625 C 30.117188 -26.742188 27.753906 -27.671875 24.828125 -27.671875 C 21.941406 -27.671875 19.582031 -26.742188 17.75 -24.890625 C 15.925781 -23.046875 15.015625 -20.679688 15.015625 -17.796875 Z M 15.015625 -17.796875 "/></g></g></g><g fill="#000000" fill-opacity="1"><g transform="translate(612.764618, 415.283049)"><g><path d="M 21.921875 0.953125 C 18.128906 0.953125 14.78125 0.164062 11.875 -1.40625 C 8.96875 -2.988281 6.703125 -5.191406 5.078125 -8.015625 C 3.453125 -10.835938 2.640625 -14.097656 2.640625 -17.796875 C 2.640625 -21.492188 3.460938 -24.738281 5.109375 -27.53125 C 6.753906 -30.320312 9.03125 -32.503906 11.9375 -34.078125 C 14.84375 -35.660156 18.210938 -36.453125 22.046875 -36.453125 C 26.109375 -36.453125 29.613281 -35.550781 32.5625 -33.75 C 35.519531 -31.945312 37.773438 -29.421875 39.328125 -26.171875 C 40.890625 -22.929688 41.554688 -19.144531 41.328125 -14.8125 L 12.859375 -14.8125 C 13.347656 -12.375 14.425781 -10.515625 16.09375 -9.234375 C 17.757812 -7.953125 19.769531 -7.3125 22.125 -7.3125 C 23.832031 -7.3125 25.394531 -7.632812 26.8125 -8.28125 C 28.238281 -8.9375 29.378906 -9.851562 30.234375 -11.03125 L 40.65625 -11.03125 C 39.125 -7.28125 36.710938 -4.34375 33.421875 -2.21875 C 30.128906 -0.101562 26.296875 0.953125 21.921875 0.953125 Z M 12.921875 -21.3125 L 31.390625 -21.3125 C 30.796875 -23.46875 29.695312 -25.164062 28.09375 -26.40625 C 26.5 -27.65625 24.507812 -28.28125 22.125 -28.28125 C 19.863281 -28.28125 17.910156 -27.65625 16.265625 -26.40625 C 14.617188 -25.164062 13.503906 -23.46875 12.921875 -21.3125 Z M 12.921875 -21.3125 "/></g></g></g><g fill="#000000" fill-opacity="1"><g transform="translate(655.102407, 415.283049)"><g><path d="M 5.140625 0 L 5.140625 -35.515625 L 12.78125 -35.515625 L 14.140625 -30.78125 C 15.304688 -32.445312 16.742188 -33.648438 18.453125 -34.390625 C 20.171875 -35.140625 22.335938 -35.515625 24.953125 -35.515625 L 28.8125 -35.515625 L 28.8125 -26.171875 L 24.890625 -26.171875 C 21.960938 -26.171875 19.648438 -25.378906 17.953125 -23.796875 C 16.265625 -22.222656 15.421875 -19.519531 15.421875 -15.6875 L 15.421875 0 Z M 5.140625 0 "/></g></g></g><g fill="#000000" fill-opacity="1"><g transform="translate(684.657542, 415.283049)"><g><path d="M 28.140625 0.953125 C 23.222656 0.953125 18.859375 -0.09375 15.046875 -2.1875 C 11.234375 -4.289062 8.253906 -7.191406 6.109375 -10.890625 C 3.972656 -14.585938 2.90625 -18.847656 2.90625 -23.671875 C 2.90625 -28.492188 3.972656 -32.753906 6.109375 -36.453125 C 8.253906 -40.148438 11.234375 -43.046875 15.046875 -45.140625 C 18.859375 -47.242188 23.222656 -48.296875 28.140625 -48.296875 C 33.097656 -48.296875 37.46875 -47.242188 41.25 -45.140625 C 45.039062 -43.046875 48.019531 -40.148438 50.1875 -36.453125 C 52.351562 -32.753906 53.4375 -28.492188 53.4375 -23.671875 C 53.4375 -18.847656 52.351562 -14.585938 50.1875 -10.890625 C 48.019531 -7.191406 45.039062 -4.289062 41.25 -2.1875 C 37.46875 -0.09375 33.097656 0.953125 28.140625 0.953125 Z M 13.859375 -23.671875 C 13.859375 -20.828125 14.46875 -18.320312 15.6875 -16.15625 C 16.90625 -14 18.582031 -12.3125 20.71875 -11.09375 C 22.863281 -9.875 25.335938 -9.265625 28.140625 -9.265625 C 30.984375 -9.265625 33.472656 -9.875 35.609375 -11.09375 C 37.753906 -12.3125 39.421875 -14 40.609375 -16.15625 C 41.804688 -18.320312 42.40625 -20.828125 42.40625 -23.671875 C 42.40625 -26.515625 41.804688 -29.015625 40.609375 -31.171875 C 39.421875 -33.335938 37.753906 -35.03125 35.609375 -36.25 C 33.472656 -37.46875 30.984375 -38.078125 28.140625 -38.078125 C 25.335938 -38.078125 22.863281 -37.46875 20.71875 -36.25 C 18.582031 -35.03125 16.90625 -33.335938 15.6875 -31.171875 C 14.46875 -29.015625 13.859375 -26.515625 13.859375 -23.671875 Z M 13.859375 -23.671875 "/></g></g></g><g fill="#000000" fill-opacity="1"><g transform="translate(739.439815, 415.283049)"><g><path d="M 5.140625 0 L 5.140625 -35.515625 L 12.78125 -35.515625 L 13.859375 -31.515625 C 15.304688 -33.179688 17.054688 -34.421875 19.109375 -35.234375 C 21.160156 -36.046875 23.359375 -36.453125 25.703125 -36.453125 C 30.347656 -36.453125 33.988281 -35.007812 36.625 -32.125 C 39.257812 -29.238281 40.578125 -25.335938 40.578125 -20.421875 L 40.578125 0 L 30.296875 0 L 30.296875 -19.34375 C 30.296875 -21.957031 29.675781 -24 28.4375 -25.46875 C 27.195312 -26.9375 25.472656 -27.671875 23.265625 -27.671875 C 20.921875 -27.671875 19.023438 -26.859375 17.578125 -25.234375 C 16.140625 -23.609375 15.421875 -21.394531 15.421875 -18.59375 L 15.421875 0 Z M 5.140625 0 "/></g></g></g><g fill="#000000" fill-opacity="1"><g transform="translate(782.927378, 415.283049)"><g><path d="M 5.140625 0 L 5.140625 -50.046875 L 15.421875 -50.046875 L 15.421875 0 Z M 5.140625 0 "/></g></g></g><g fill="#000000" fill-opacity="1"><g transform="translate(801.931746, 415.283049)"><g><path d="M 5.140625 0 L 5.140625 -35.515625 L 15.421875 -35.515625 L 15.421875 0 Z M 3.65625 -47.015625 C 3.65625 -48.898438 4.273438 -50.441406 5.515625 -51.640625 C 6.753906 -52.835938 8.34375 -53.4375 10.28125 -53.4375 C 12.257812 -53.4375 13.859375 -52.835938 15.078125 -51.640625 C 16.296875 -50.441406 16.90625 -48.898438 16.90625 -47.015625 C 16.90625 -45.117188 16.296875 -43.570312 15.078125 -42.375 C 13.859375 -41.175781 12.257812 -40.578125 10.28125 -40.578125 C 8.34375 -40.578125 6.753906 -41.175781 5.515625 -42.375 C 4.273438 -43.570312 3.65625 -45.117188 3.65625 -47.015625 Z M 3.65625 -47.015625 "/></g></g></g><g fill="#000000" fill-opacity="1"><g transform="translate(820.936113, 415.283049)"><g><path d="M 5.140625 0 L 5.140625 -35.515625 L 12.78125 -35.515625 L 13.859375 -31.515625 C 15.304688 -33.179688 17.054688 -34.421875 19.109375 -35.234375 C 21.160156 -36.046875 23.359375 -36.453125 25.703125 -36.453125 C 30.347656 -36.453125 33.988281 -35.007812 36.625 -32.125 C 39.257812 -29.238281 40.578125 -25.335938 40.578125 -20.421875 L 40.578125 0 L 30.296875 0 L 30.296875 -19.34375 C 30.296875 -21.957031 29.675781 -24 28.4375 -25.46875 C 27.195312 -26.9375 25.472656 -27.671875 23.265625 -27.671875 C 20.921875 -27.671875 19.023438 -26.859375 17.578125 -25.234375 C 16.140625 -23.609375 15.421875 -21.394531 15.421875 -18.59375 L 15.421875 0 Z M 5.140625 0 "/></g></g></g><g fill="#000000" fill-opacity="1"><g transform="translate(864.423676, 415.283049)"><g><path d="M 21.921875 0.953125 C 18.128906 0.953125 14.78125 0.164062 11.875 -1.40625 C 8.96875 -2.988281 6.703125 -5.191406 5.078125 -8.015625 C 3.453125 -10.835938 2.640625 -14.097656 2.640625 -17.796875 C 2.640625 -21.492188 3.460938 -24.738281 5.109375 -27.53125 C 6.753906 -30.320312 9.03125 -32.503906 11.9375 -34.078125 C 14.84375 -35.660156 18.210938 -36.453125 22.046875 -36.453125 C 26.109375 -36.453125 29.613281 -35.550781 32.5625 -33.75 C 35.519531 -31.945312 37.773438 -29.421875 39.328125 -26.171875 C 40.890625 -22.929688 41.554688 -19.144531 41.328125 -14.8125 L 12.859375 -14.8125 C 13.347656 -12.375 14.425781 -10.515625 16.09375 -9.234375 C 17.757812 -7.953125 19.769531 -7.3125 22.125 -7.3125 C 23.832031 -7.3125 25.394531 -7.632812 26.8125 -8.28125 C 28.238281 -8.9375 29.378906 -9.851562 30.234375 -11.03125 L 40.65625 -11.03125 C 39.125 -7.28125 36.710938 -4.34375 33.421875 -2.21875 C 30.128906 -0.101562 26.296875 0.953125 21.921875 0.953125 Z M 12.921875 -21.3125 L 31.390625 -21.3125 C 30.796875 -23.46875 29.695312 -25.164062 28.09375 -26.40625 C 26.5 -27.65625 24.507812 -28.28125 22.125 -28.28125 C 19.863281 -28.28125 17.910156 -27.65625 16.265625 -26.40625 C 14.617188 -25.164062 13.503906 -23.46875 12.921875 -21.3125 Z M 12.921875 -21.3125 "/></g></g></g><g clip-path="url(#5fa71c1836)"><g clip-path="url(#1c1f781130)"><g clip-path="url(#d88b6887c7)"><path fill="#00bf63" d="M 309.765625 518.320312 L 233.835938 381.277344 C 230.738281 375.773438 225.582031 371.414062 219.070312 369.542969 L 136.199219 345.765625 C 123.121094 342.011719 109.484375 349.566406 105.730469 362.648438 L 81.949219 445.515625 C 80.066406 452.085938 81.03125 458.769531 84.128906 464.273438 L 160.101562 601.394531 C 163.140625 606.878906 168.292969 611.242188 174.804688 613.109375 C 181.316406 614.976562 188.058594 614.03125 193.546875 610.992188 L 300.195312 551.902344 C 305.695312 548.800781 310.058594 543.648438 311.925781 537.136719 C 313.8125 530.566406 312.847656 523.882812 309.765625 518.320312 Z M 136.972656 410.054688 C 127.148438 407.234375 121.492188 397.027344 124.3125 387.199219 C 127.128906 377.375 137.339844 371.71875 147.164062 374.539062 C 156.992188 377.355469 162.648438 387.566406 159.828125 397.390625 C 157.007812 407.21875 146.800781 412.871094 136.972656 410.054688 Z M 136.972656 410.054688 " fill-opacity="1" fill-rule="nonzero"/></g></g></g><g clip-path="url(#3024c4a691)"><g clip-path="url(#b293736dd9)"><g clip-path="url(#c74f2e23c5)"><path fill="#ffffff" d="M 150.769531 404.539062 C 151.132812 404.648438 151.496094 404.785156 151.835938 404.953125 C 151.839844 404.957031 151.847656 404.957031 151.855469 404.957031 L 186.132812 421.457031 C 188.3125 422.507812 189.78125 424.632812 190.007812 427.042969 C 190.007812 427.046875 190.003906 427.054688 190.003906 427.0625 L 194.421875 474.75 L 356.488281 525.660156 C 358.351562 526.246094 359.871094 527.597656 360.6875 529.363281 C 361.5 531.128906 361.550781 533.175781 360.785156 534.980469 L 330.386719 606.933594 C 329.117188 609.953125 325.820312 611.691406 322.609375 611.035156 L 203.582031 586.898438 L 175.3125 598.421875 C 175.277344 598.433594 175.246094 598.449219 175.214844 598.457031 C 175.183594 598.46875 175.152344 598.46875 175.121094 598.476562 C 175.085938 598.488281 175.054688 598.503906 175.023438 598.511719 C 169.910156 600.449219 167.640625 604.429688 167.550781 606.976562 C 167.503906 608.429688 167.734375 609.574219 168.742188 610.695312 C 169.753906 611.816406 171.714844 612.980469 175.410156 613.8125 C 175.421875 613.816406 175.4375 613.820312 175.449219 613.824219 C 175.566406 613.855469 175.699219 613.894531 175.816406 613.929688 C 175.835938 613.9375 175.855469 613.941406 175.875 613.949219 L 314.550781 654.179688 L 314.574219 654.183594 C 318.226562 655.207031 320.417969 659.148438 319.359375 662.789062 C 318.296875 666.433594 314.339844 668.597656 310.707031 667.496094 L 310.6875 667.492188 L 300.550781 664.558594 C 303.628906 668.042969 304.949219 672.972656 303.582031 677.75 C 301.449219 685.171875 293.625 689.507812 286.199219 687.378906 C 278.773438 685.246094 274.4375 677.421875 276.570312 669.996094 C 277.945312 665.195312 281.699219 661.679688 286.191406 660.375 L 171.992188 627.253906 C 175.441406 630.757812 176.984375 635.96875 175.539062 641.007812 C 173.410156 648.429688 165.582031 652.765625 158.15625 650.636719 C 150.734375 648.507812 146.394531 640.679688 148.527344 633.253906 C 150.378906 626.804688 156.519531 622.683594 162.964844 623.109375 C 157.808594 619.429688 154.601562 613.980469 153.707031 606.796875 C 153.691406 606.707031 153.679688 606.617188 153.675781 606.523438 C 153.984375 597.554688 160.308594 589.519531 169.664062 585.796875 C 169.6875 585.78125 169.714844 585.769531 169.742188 585.753906 C 169.761719 585.746094 169.777344 585.714844 169.796875 585.707031 C 169.886719 585.644531 169.984375 585.589844 170.085938 585.546875 L 190.105469 577.417969 L 176.597656 432.242188 L 145.839844 417.457031 C 145.832031 417.453125 145.824219 417.453125 145.820312 417.449219 C 142.578125 415.929688 141.003906 412.050781 142.28125 408.699219 C 143.5625 405.339844 147.335938 403.5 150.773438 404.539062 Z M 196.390625 486.449219 L 198.871094 513.242188 L 211.125 516.757812 L 217.882812 493.207031 Z M 222.523438 494.671875 L 215.800781 518.101562 L 238.421875 524.589844 L 244.980469 501.726562 Z M 249.628906 503.171875 L 243.097656 525.933594 L 265.714844 532.421875 L 272.085938 510.230469 Z M 276.726562 511.691406 L 270.394531 533.765625 L 293.011719 540.253906 L 299.183594 518.75 Z M 303.828125 520.214844 L 297.691406 541.597656 L 320.308594 548.089844 L 326.28125 527.273438 Z M 330.929688 528.714844 L 324.988281 549.429688 L 341.570312 554.191406 L 349.828125 534.664062 Z M 339.667969 558.683594 L 323.652344 554.089844 L 317.578125 575.25 L 331.042969 579.113281 Z M 318.972656 552.746094 L 296.355469 546.253906 L 290.28125 567.417969 L 312.902344 573.90625 Z M 291.675781 544.914062 L 269.058594 538.421875 L 262.984375 559.582031 L 285.605469 566.074219 Z M 264.378906 537.078125 L 241.761719 530.589844 L 235.6875 551.75 L 258.308594 558.242188 Z M 237.082031 529.246094 L 214.464844 522.757812 L 208.394531 543.917969 L 231.011719 550.410156 Z M 209.789062 521.414062 L 199.339844 518.417969 L 201.527344 541.949219 L 203.714844 542.574219 Z M 329.136719 583.605469 L 316.238281 579.90625 L 311.882812 595.09375 L 323.3125 597.410156 Z M 311.5625 578.5625 L 288.941406 572.074219 L 283.960938 589.425781 L 307.097656 594.113281 Z M 284.265625 570.730469 L 261.644531 564.238281 L 256.042969 583.761719 L 279.175781 588.46875 Z M 256.96875 562.898438 L 234.347656 556.40625 L 228.121094 578.113281 L 251.257812 582.804688 Z M 229.671875 555.066406 L 207.054688 548.574219 L 203.359375 561.453125 L 204.496094 573.679688 C 205.128906 573.570312 205.785156 573.578125 206.417969 573.707031 L 223.339844 577.136719 Z M 202.375 547.230469 L 202.03125 547.132812 L 202.101562 548.183594 Z M 292.339844 665.933594 C 287.925781 664.667969 283.390625 667.179688 282.125 671.59375 C 280.855469 676.007812 283.375 680.523438 287.789062 681.789062 C 292.203125 683.054688 296.734375 680.5625 298 676.148438 C 299.265625 671.734375 296.753906 667.199219 292.339844 665.933594 Z M 164.304688 629.191406 C 159.890625 627.925781 155.355469 630.441406 154.085938 634.851562 C 152.820312 639.265625 155.339844 643.78125 159.753906 645.046875 C 164.167969 646.316406 168.695312 643.820312 169.964844 639.410156 C 171.230469 634.996094 168.71875 630.460938 164.304688 629.191406 Z M 291.257812 669.699219 C 293.65625 670.386719 295.023438 672.851562 294.332031 675.25 C 293.644531 677.648438 291.1875 678.992188 288.789062 678.304688 C 286.390625 677.617188 285.019531 675.171875 285.707031 672.773438 C 286.394531 670.378906 288.859375 669.011719 291.257812 669.699219 Z M 163.222656 632.960938 C 165.621094 633.648438 166.984375 636.113281 166.296875 638.511719 C 165.609375 640.90625 163.152344 642.253906 160.753906 641.566406 C 158.355469 640.878906 156.984375 638.433594 157.671875 636.035156 C 158.359375 633.636719 160.824219 632.269531 163.222656 632.960938 Z M 163.222656 632.960938 " fill-opacity="1" fill-rule="nonzero"/></g></g></g><g clip-path="url(#def78f070f)"><path fill="#00bf63" d="M 1333.621094 777.09375 L 1190.5625 634.035156 C 1184.757812 628.308594 1176.804688 624.730469 1168.058594 624.730469 L 1056.730469 624.730469 C 1039.15625 624.730469 1024.921875 638.964844 1024.921875 656.539062 L 1024.921875 767.867188 C 1024.921875 776.695312 1028.5 784.648438 1034.304688 790.371094 L 1177.441406 933.511719 C 1183.167969 939.234375 1191.121094 942.8125 1199.867188 942.8125 C 1208.613281 942.8125 1216.644531 939.234375 1222.371094 933.511719 L 1333.699219 822.179688 C 1339.425781 816.375 1343.003906 808.425781 1343.003906 799.675781 C 1343.003906 790.851562 1339.425781 782.898438 1333.621094 777.09375 Z M 1080.585938 704.253906 C 1067.386719 704.253906 1056.730469 693.597656 1056.730469 680.394531 C 1056.730469 667.195312 1067.386719 656.539062 1080.585938 656.539062 C 1093.785156 656.539062 1104.441406 667.195312 1104.441406 680.394531 C 1104.441406 693.597656 1093.785156 704.253906 1080.585938 704.253906 Z M 1080.585938 704.253906 " fill-opacity="1" fill-rule="nonzero"/></g><g clip-path="url(#8c9f632ffa)"><path fill="#ffffff" d="M 1095.746094 692.492188 C 1096.234375 692.5 1096.734375 692.542969 1097.214844 692.628906 C 1097.222656 692.628906 1097.234375 692.628906 1097.242188 692.628906 L 1145.664062 700.898438 C 1148.742188 701.425781 1151.324219 703.539062 1152.464844 706.449219 C 1152.464844 706.457031 1152.464844 706.464844 1152.464844 706.476562 L 1174.933594 764.09375 L 1394.226562 769.5625 C 1396.75 769.625 1399.117188 770.761719 1400.757812 772.660156 C 1402.394531 774.5625 1403.183594 777.085938 1402.878906 779.597656 L 1390.773438 879.734375 C 1390.273438 883.933594 1386.800781 887.265625 1382.582031 887.597656 L 1226.246094 900.027344 L 1195.261719 924.402344 C 1195.226562 924.429688 1195.191406 924.457031 1195.152344 924.484375 C 1195.121094 924.507812 1195.078125 924.515625 1195.046875 924.539062 C 1195.007812 924.5625 1194.976562 924.59375 1194.9375 924.621094 C 1189.28125 928.839844 1187.878906 934.589844 1188.679688 937.785156 C 1189.132812 939.609375 1189.828125 940.945312 1191.480469 941.976562 C 1193.132812 943.007812 1195.984375 943.753906 1200.867188 943.472656 C 1200.882812 943.472656 1200.902344 943.472656 1200.921875 943.472656 C 1201.078125 943.46875 1201.253906 943.46875 1201.410156 943.472656 C 1201.4375 943.472656 1201.46875 943.472656 1201.492188 943.472656 L 1387.949219 944.015625 L 1387.976562 944.015625 C 1392.875 943.984375 1397 948.09375 1396.980469 952.992188 C 1396.960938 957.894531 1392.820312 961.988281 1387.921875 961.917969 L 1387.894531 961.917969 L 1374.265625 961.890625 C 1379.328125 965.117188 1382.726562 970.765625 1382.726562 977.179688 C 1382.726562 987.152344 1374.554688 995.324219 1364.582031 995.324219 C 1354.605469 995.324219 1346.4375 987.152344 1346.4375 977.179688 C 1346.4375 970.730469 1349.839844 965.027344 1354.953125 961.808594 L 1201.410156 961.371094 C 1206.941406 964.492188 1210.710938 970.410156 1210.710938 977.179688 C 1210.710938 987.152344 1202.542969 995.324219 1192.570312 995.324219 C 1182.59375 995.324219 1174.421875 987.152344 1174.421875 977.179688 C 1174.421875 968.515625 1180.578125 961.210938 1188.730469 959.441406 C 1181.023438 956.714844 1175.097656 951.089844 1171.429688 942.492188 C 1171.375 942.386719 1171.332031 942.28125 1171.292969 942.167969 C 1168.484375 930.921875 1173.46875 918.699219 1183.753906 910.746094 C 1183.78125 910.71875 1183.808594 910.691406 1183.835938 910.664062 C 1183.863281 910.644531 1183.867188 910.601562 1183.890625 910.582031 C 1183.980469 910.472656 1184.078125 910.375 1184.1875 910.285156 L 1206.140625 893.066406 L 1137.671875 717.679688 L 1094.226562 710.28125 C 1094.21875 710.28125 1094.207031 710.285156 1094.199219 710.28125 C 1089.636719 709.546875 1086.296875 705.292969 1086.691406 700.679688 C 1087.085938 696.054688 1091.113281 692.429688 1095.75 692.492188 Z M 1181.546875 777.914062 L 1194.167969 810.285156 L 1210.625 810.285156 L 1210.625 778.648438 Z M 1216.910156 778.8125 L 1216.910156 810.285156 L 1247.296875 810.285156 L 1247.296875 779.574219 Z M 1253.582031 779.707031 L 1253.582031 810.285156 L 1283.96875 810.285156 L 1283.96875 780.46875 Z M 1290.25 780.632812 L 1290.25 810.285156 L 1320.636719 810.285156 L 1320.636719 781.394531 Z M 1326.921875 781.558594 L 1326.921875 810.285156 L 1357.308594 810.285156 L 1357.308594 782.320312 Z M 1363.59375 782.457031 L 1363.59375 810.285156 L 1385.871094 810.285156 L 1389.164062 783.109375 Z M 1385.109375 816.542969 L 1363.59375 816.542969 L 1363.59375 844.96875 L 1381.683594 844.96875 Z M 1357.308594 816.542969 L 1326.921875 816.542969 L 1326.921875 844.96875 L 1357.308594 844.96875 Z M 1320.636719 816.542969 L 1290.25 816.542969 L 1290.25 844.96875 L 1320.636719 844.96875 Z M 1283.96875 816.542969 L 1253.582031 816.542969 L 1253.582031 844.96875 L 1283.96875 844.96875 Z M 1247.296875 816.542969 L 1216.910156 816.542969 L 1216.910156 844.96875 L 1247.296875 844.96875 Z M 1210.625 816.542969 L 1196.589844 816.542969 L 1207.6875 844.96875 L 1210.625 844.96875 Z M 1380.917969 851.226562 L 1363.589844 851.226562 L 1363.589844 871.628906 L 1378.605469 870.433594 Z M 1357.304688 851.226562 L 1326.917969 851.226562 L 1326.917969 874.539062 L 1357.304688 872.117188 Z M 1320.632812 851.226562 L 1290.246094 851.226562 L 1290.246094 877.449219 L 1320.632812 875.058594 Z M 1283.964844 851.226562 L 1253.578125 851.226562 L 1253.578125 880.386719 L 1283.964844 877.96875 Z M 1247.292969 851.226562 L 1216.90625 851.226562 L 1216.90625 868.527344 L 1222.671875 883.300781 C 1223.421875 882.9375 1224.238281 882.714844 1225.066406 882.648438 L 1247.292969 880.878906 Z M 1210.621094 851.226562 L 1210.160156 851.226562 L 1210.621094 852.503906 Z M 1364.5625 966.515625 C 1358.636719 966.515625 1353.902344 971.253906 1353.902344 977.179688 C 1353.902344 983.109375 1358.636719 987.816406 1364.5625 987.816406 C 1370.492188 987.816406 1375.226562 983.109375 1375.226562 977.179688 C 1375.226562 971.253906 1370.492188 966.515625 1364.5625 966.515625 Z M 1192.558594 966.515625 C 1186.628906 966.515625 1181.894531 971.253906 1181.894531 977.179688 C 1181.894531 983.109375 1186.628906 987.816406 1192.558594 987.816406 C 1198.488281 987.816406 1203.222656 983.109375 1203.222656 977.179688 C 1203.222656 971.253906 1198.488281 966.515625 1192.558594 966.515625 Z M 1364.5625 971.578125 C 1367.785156 971.578125 1370.359375 974.148438 1370.359375 977.371094 C 1370.359375 980.59375 1367.785156 983.136719 1364.5625 983.136719 C 1361.34375 983.136719 1358.769531 980.59375 1358.769531 977.371094 C 1358.769531 974.148438 1361.34375 971.578125 1364.5625 971.578125 Z M 1192.558594 971.578125 C 1195.78125 971.578125 1198.351562 974.148438 1198.351562 977.371094 C 1198.351562 980.59375 1195.78125 983.136719 1192.558594 983.136719 C 1189.339844 983.136719 1186.765625 980.59375 1186.765625 977.371094 C 1186.765625 974.148438 1189.339844 971.578125 1192.558594 971.578125 Z M 1192.558594 971.578125 " fill-opacity="1" fill-rule="nonzero"/></g></svg>