<svg xmlns="http://www.w3.org/2000/svg" xmlns:xlink="http://www.w3.org/1999/xlink" width="500" zoomAndPan="magnify" viewBox="0 0 375 374.999991" height="500" preserveAspectRatio="xMidYMid meet" version="1.0"><defs><clipPath id="9c92f89f0b"><path d="M 17.589844 24.304688 L 300 24.304688 L 300 306.800781 L 17.589844 306.800781 Z M 17.589844 24.304688 " clip-rule="nonzero"/></clipPath><clipPath id="b46181511a"><path d="M 72 84.371094 L 353.480469 84.371094 L 353.480469 353.730469 L 72 353.730469 Z M 72 84.371094 " clip-rule="nonzero"/></clipPath></defs><g clip-path="url(#9c92f89f0b)"><path fill="#00bf63" d="M 291.554688 159.523438 L 164.59375 32.558594 C 159.441406 27.480469 152.386719 24.304688 144.621094 24.304688 L 45.820312 24.304688 C 30.222656 24.304688 17.589844 36.9375 17.589844 52.53125 L 17.589844 151.335938 C 17.589844 159.167969 20.765625 166.226562 25.917969 171.308594 L 152.949219 298.339844 C 158.03125 303.421875 165.089844 306.597656 172.851562 306.597656 C 180.613281 306.597656 187.742188 303.421875 192.824219 298.339844 L 291.625 199.535156 C 296.707031 194.386719 299.882812 187.328125 299.882812 179.5625 C 299.882812 171.730469 296.707031 164.671875 291.554688 159.523438 Z M 66.992188 94.875 C 55.277344 94.875 45.820312 85.417969 45.820312 73.703125 C 45.820312 61.988281 55.277344 52.53125 66.992188 52.53125 C 78.707031 52.53125 88.164062 61.988281 88.164062 73.703125 C 88.164062 85.417969 78.707031 94.875 66.992188 94.875 Z M 66.992188 94.875 " fill-opacity="1" fill-rule="nonzero"/></g><g clip-path="url(#b46181511a)"><path fill="#ffffff" d="M 80.445312 84.441406 C 80.878906 84.445312 81.324219 84.484375 81.75 84.5625 C 81.757812 84.5625 81.765625 84.558594 81.773438 84.5625 L 124.746094 91.898438 C 127.480469 92.371094 129.773438 94.242188 130.785156 96.824219 C 130.785156 96.832031 130.785156 96.839844 130.785156 96.847656 L 150.726562 147.984375 L 345.34375 152.835938 C 347.582031 152.890625 349.683594 153.902344 351.136719 155.589844 C 352.59375 157.273438 353.292969 159.515625 353.019531 161.746094 L 342.277344 250.613281 C 341.835938 254.34375 338.753906 257.300781 335.011719 257.589844 L 196.265625 268.625 L 168.765625 290.257812 C 168.734375 290.28125 168.703125 290.304688 168.667969 290.328125 C 168.640625 290.351562 168.601562 290.359375 168.570312 290.378906 C 168.539062 290.398438 168.507812 290.429688 168.476562 290.449219 C 163.457031 294.195312 162.214844 299.300781 162.921875 302.132812 C 163.328125 303.75 163.945312 304.9375 165.410156 305.851562 C 166.875 306.769531 169.40625 307.429688 173.738281 307.179688 C 173.753906 307.179688 173.769531 307.179688 173.785156 307.179688 C 173.925781 307.175781 174.082031 307.179688 174.222656 307.179688 C 174.246094 307.179688 174.269531 307.179688 174.292969 307.179688 L 339.769531 307.664062 L 339.796875 307.664062 C 344.144531 307.636719 347.804688 311.285156 347.785156 315.628906 C 347.769531 319.980469 344.09375 323.613281 339.746094 323.550781 L 339.722656 323.550781 L 327.628906 323.527344 C 332.121094 326.390625 335.136719 331.402344 335.136719 337.09375 C 335.136719 345.945312 327.886719 353.195312 319.03125 353.195312 C 310.179688 353.195312 302.929688 345.945312 302.929688 337.09375 C 302.929688 331.371094 305.953125 326.308594 310.484375 323.453125 L 174.21875 323.066406 C 179.128906 325.835938 182.476562 331.089844 182.476562 337.09375 C 182.476562 345.945312 175.226562 353.195312 166.375 353.195312 C 157.519531 353.195312 150.269531 345.945312 150.269531 337.09375 C 150.269531 329.40625 155.730469 322.925781 162.96875 321.351562 C 156.125 318.933594 150.871094 313.941406 147.613281 306.3125 C 147.566406 306.21875 147.527344 306.121094 147.492188 306.023438 C 145 296.042969 149.425781 285.195312 158.550781 278.136719 C 158.574219 278.113281 158.601562 278.089844 158.625 278.0625 C 158.648438 278.046875 158.652344 278.007812 158.671875 277.992188 C 158.753906 277.894531 158.839844 277.808594 158.9375 277.726562 L 178.421875 262.445312 L 117.652344 106.792969 L 79.097656 100.226562 C 79.089844 100.226562 79.082031 100.230469 79.074219 100.226562 C 75.023438 99.578125 72.0625 95.800781 72.410156 91.707031 C 72.757812 87.601562 76.335938 84.382812 80.449219 84.4375 Z M 156.59375 160.25 L 167.792969 188.980469 L 182.398438 188.980469 L 182.398438 160.902344 Z M 187.976562 161.046875 L 187.976562 188.980469 L 214.945312 188.980469 L 214.945312 161.722656 Z M 220.523438 161.84375 L 220.523438 188.980469 L 247.488281 188.980469 L 247.488281 162.519531 Z M 253.066406 162.664062 L 253.066406 188.980469 L 280.035156 188.980469 L 280.035156 163.339844 Z M 285.609375 163.484375 L 285.609375 188.980469 L 312.578125 188.980469 L 312.578125 164.160156 Z M 318.15625 164.28125 L 318.15625 188.980469 L 337.929688 188.980469 L 340.851562 164.859375 Z M 337.253906 194.53125 L 318.15625 194.53125 L 318.15625 219.761719 L 334.210938 219.761719 Z M 312.578125 194.53125 L 285.609375 194.53125 L 285.609375 219.761719 L 312.578125 219.761719 Z M 280.035156 194.53125 L 253.066406 194.53125 L 253.066406 219.761719 L 280.035156 219.761719 Z M 247.488281 194.53125 L 220.523438 194.53125 L 220.523438 219.761719 L 247.488281 219.761719 Z M 214.945312 194.53125 L 187.976562 194.53125 L 187.976562 219.761719 L 214.945312 219.761719 Z M 182.398438 194.53125 L 169.941406 194.53125 L 179.792969 219.761719 L 182.398438 219.761719 Z M 333.53125 225.3125 L 318.152344 225.3125 L 318.152344 243.421875 L 331.476562 242.359375 Z M 312.574219 225.3125 L 285.605469 225.3125 L 285.605469 246.003906 L 312.574219 243.855469 Z M 280.03125 225.3125 L 253.0625 225.3125 L 253.0625 248.585938 L 280.03125 246.460938 Z M 247.484375 225.3125 L 220.519531 225.3125 L 220.519531 251.195312 L 247.484375 249.046875 Z M 214.941406 225.3125 L 187.972656 225.3125 L 187.972656 240.667969 L 193.09375 253.777344 C 193.757812 253.457031 194.480469 253.257812 195.214844 253.199219 L 214.941406 251.628906 Z M 182.394531 225.3125 L 181.984375 225.3125 L 182.394531 226.449219 Z M 319.019531 327.632812 C 313.753906 327.632812 309.554688 331.835938 309.554688 337.097656 C 309.554688 342.359375 313.753906 346.535156 319.019531 346.535156 C 324.28125 346.535156 328.480469 342.359375 328.480469 337.097656 C 328.480469 331.835938 324.28125 327.632812 319.019531 327.632812 Z M 166.367188 327.632812 C 161.105469 327.632812 156.902344 331.835938 156.902344 337.097656 C 156.902344 342.359375 161.105469 346.535156 166.367188 346.535156 C 171.628906 346.535156 175.828125 342.359375 175.828125 337.097656 C 175.828125 331.835938 171.628906 327.632812 166.367188 327.632812 Z M 319.019531 332.125 C 321.875 332.125 324.160156 334.40625 324.160156 337.265625 C 324.160156 340.125 321.875 342.382812 319.019531 342.382812 C 316.160156 342.382812 313.875 340.125 313.875 337.265625 C 313.875 334.40625 316.160156 332.125 319.019531 332.125 Z M 166.367188 332.125 C 169.222656 332.125 171.507812 334.40625 171.507812 337.265625 C 171.507812 340.125 169.222656 342.382812 166.367188 342.382812 C 163.507812 342.382812 161.222656 340.125 161.222656 337.265625 C 161.222656 334.40625 163.507812 332.125 166.367188 332.125 Z M 166.367188 332.125 " fill-opacity="1" fill-rule="nonzero"/></g></svg>