<svg xmlns="http://www.w3.org/2000/svg" xmlns:xlink="http://www.w3.org/1999/xlink" width="500" zoomAndPan="magnify" viewBox="0 0 375 374.999991" height="500" preserveAspectRatio="xMidYMid meet" version="1.0"><defs><clipPath id="c08206447a"><path d="M 23 56 L 364.925781 56 L 364.925781 329.589844 L 23 329.589844 Z M 23 56 " clip-rule="nonzero"/></clipPath></defs><path fill="#000000" d="M 265.183594 150.277344 C 224.964844 150.277344 192.246094 183.015625 192.246094 223.25 C 192.246094 263.480469 224.964844 296.230469 265.183594 296.230469 C 305.40625 296.230469 338.121094 263.492188 338.121094 223.25 C 338.121094 183.003906 305.40625 150.277344 265.183594 150.277344 Z M 326.488281 217.582031 L 314.5 217.582031 C 314 201.917969 309.878906 187.082031 302.578125 174.417969 C 315.839844 184.59375 324.875 200.007812 326.488281 217.582031 Z M 270.996094 284.585938 C 270.953125 284.585938 270.90625 284.585938 270.871094 284.597656 L 270.871094 228.949219 L 302.828125 228.949219 C 300.59375 252.40625 288.867188 273.136719 270.996094 284.585938 Z M 227.222656 228.9375 L 259.519531 228.9375 L 259.519531 284.585938 C 259.359375 284.574219 259.191406 284.574219 259.03125 284.5625 C 241.164062 273.125 229.457031 252.394531 227.222656 228.9375 Z M 250.628906 163.457031 C 253.527344 162.75 256.476562 162.207031 259.507812 161.933594 L 259.507812 217.582031 L 226.90625 217.582031 C 227.710938 196.417969 236.394531 176.507812 250.628906 163.457031 Z M 270.859375 217.582031 L 270.859375 161.933594 C 273.734375 162.195312 276.535156 162.695312 279.296875 163.339844 C 293.597656 176.40625 302.328125 196.363281 303.144531 217.582031 Z M 227.164062 174.882812 C 220.035156 187.445312 216.039062 202.109375 215.550781 217.570312 L 203.894531 217.570312 C 205.484375 200.28125 214.246094 185.070312 227.164062 174.882812 Z M 203.894531 228.9375 L 215.871094 228.9375 C 217.355469 246.601562 223.613281 262.96875 233.546875 276.035156 C 217.175781 266.164062 205.730469 248.941406 203.894531 228.9375 Z M 296.175781 276.417969 C 306.292969 263.300781 312.660156 246.785156 314.167969 228.9375 L 326.488281 228.9375 C 324.625 249.203125 312.898438 266.617188 296.175781 276.417969 Z M 296.175781 276.417969 " fill-opacity="1" fill-rule="nonzero"/><path fill="#000000" d="M 62.75 255.496094 L 47.957031 270.296875 L 67.664062 290.015625 L 82.457031 275.214844 L 99.238281 292.003906 L 120.351562 217.582031 L 45.984375 238.707031 Z M 67.664062 244.351562 L 103.867188 234.074219 L 93.59375 270.285156 L 82.457031 259.152344 L 67.664062 273.953125 L 64.011719 270.296875 L 78.8125 255.496094 Z M 67.664062 244.351562 " fill-opacity="1" fill-rule="nonzero"/><path fill="#000000" d="M 125.230469 204.671875 L 143.515625 186.375 L 151.542969 194.40625 L 133.261719 212.703125 Z M 125.230469 204.671875 " fill-opacity="1" fill-rule="nonzero"/><path fill="#000000" d="M 98.632812 170.816406 L 109.988281 170.816406 L 109.988281 196.679688 L 98.632812 196.679688 Z M 98.632812 170.816406 " fill-opacity="1" fill-rule="nonzero"/><path fill="#000000" d="M 141 227.703125 L 166.851562 227.703125 L 166.851562 239.058594 L 141 239.058594 Z M 141 227.703125 " fill-opacity="1" fill-rule="nonzero"/><g clip-path="url(#c08206447a)"><path fill="#000000" d="M 23.640625 56.171875 L 23.640625 330.410156 L 364.210938 330.410156 L 364.210938 56.171875 Z M 352.859375 67.527344 L 352.859375 119.449219 L 34.992188 119.449219 L 34.992188 67.527344 Z M 34.992188 319.039062 L 34.992188 130.808594 L 352.859375 130.808594 L 352.859375 319.039062 Z M 34.992188 319.039062 " fill-opacity="1" fill-rule="nonzero"/></g><path fill="#000000" d="M 317.949219 109.421875 L 324.953125 102.402344 L 331.96875 109.421875 L 339.996094 101.390625 L 332.992188 94.371094 L 339.996094 87.363281 L 331.96875 79.332031 L 324.953125 86.339844 L 317.949219 79.332031 L 309.921875 87.363281 L 316.929688 94.371094 L 309.921875 101.390625 Z M 317.949219 109.421875 " fill-opacity="1" fill-rule="nonzero"/><path fill="#000000" d="M 272.882812 88.621094 L 296.289062 88.621094 L 296.289062 99.980469 L 272.882812 99.980469 Z M 272.882812 88.621094 " fill-opacity="1" fill-rule="nonzero"/><path fill="#000000" d="M 61.09375 111.386719 C 70.515625 111.386719 78.179688 103.71875 78.179688 94.300781 C 78.179688 84.886719 70.515625 77.207031 61.09375 77.207031 C 51.679688 77.207031 44.019531 84.875 44.019531 94.289062 C 44.019531 103.707031 51.679688 111.386719 61.09375 111.386719 Z M 61.09375 88.566406 C 64.25 88.566406 66.824219 91.132812 66.824219 94.289062 C 66.824219 97.449219 64.25 100.027344 61.09375 100.027344 C 57.9375 100.027344 55.371094 97.460938 55.371094 94.300781 C 55.371094 91.144531 57.9375 88.566406 61.09375 88.566406 Z M 61.09375 88.566406 " fill-opacity="1" fill-rule="nonzero"/><path fill="#000000" d="M 111.417969 111.386719 C 120.828125 111.386719 128.492188 103.71875 128.492188 94.300781 C 128.492188 84.886719 120.839844 77.207031 111.417969 77.207031 C 101.996094 77.207031 94.332031 84.875 94.332031 94.289062 C 94.332031 103.707031 101.996094 111.386719 111.417969 111.386719 Z M 111.417969 88.566406 C 114.574219 88.566406 117.140625 91.132812 117.140625 94.289062 C 117.140625 97.449219 114.585938 100.027344 111.417969 100.027344 C 108.25 100.027344 105.695312 97.460938 105.695312 94.300781 C 105.695312 91.144531 108.261719 88.566406 111.417969 88.566406 Z M 111.417969 88.566406 " fill-opacity="1" fill-rule="nonzero"/></svg>